<svg width="12" height="8" viewBox="0 0 12 8" fill="none" xmlns="http://www.w3.org/2000/svg">
<g id="Group">
<path id="Vector" d="M6.00329 3.89139L2.38713 0.275389C2.20358 0.0916571 1.97909 -7.74593e-08 1.71368 -6.58579e-08C1.4483 -5.42577e-08 1.22392 0.0916833 1.04039 0.275389L0.482264 0.833335C0.298793 1.01678 0.207031 1.2413 0.207031 1.5066C0.207031 1.77191 0.298793 1.99632 0.482264 2.18005L5.32612 7.03128C5.50967 7.21485 5.73413 7.30664 5.99957 7.30664C6.265 7.30664 6.48928 7.21488 6.67291 7.03128L11.5168 2.18008C11.7003 1.99634 11.7921 1.77196 11.7921 1.50663C11.7921 1.2413 11.7003 1.01681 11.5168 0.833361L10.9587 0.275415C10.7753 0.0916829 10.5521 2.5297e-05 10.289 2.53085e-05C10.0262 2.532e-05 9.8005 0.0917092 9.61202 0.275415L6.00329 3.89139Z" fill="#727272"/>
</g>
</svg>
