<svg width="402" height="213" viewBox="0 0 402 213" fill="none" xmlns="http://www.w3.org/2000/svg">
<g opacity="0.2">
<path d="M129.865 213C104.192 213 81.524 208.904 61.8599 200.712C42.469 192.519 27.3112 180.64 16.3867 165.075C5.46225 149.237 0 129.848 0 106.91C0 83.9711 5.46225 64.5827 16.3867 48.7442C27.3112 32.6327 42.469 20.4808 61.8599 12.2885C81.524 4.09615 104.192 0 129.865 0C155.537 0 177.933 4.09615 197.051 12.2885C216.442 20.4808 231.599 32.6327 242.524 48.7442C253.448 64.5827 258.911 83.9711 258.911 106.91C258.911 129.848 253.448 149.237 242.524 165.075C231.599 180.64 216.442 192.519 197.051 200.712C177.933 208.904 155.537 213 129.865 213ZM129.865 172.038C143.794 172.038 156.357 169.581 167.554 164.665C179.025 159.477 188.038 152.104 194.593 142.546C201.42 132.715 204.834 120.837 204.834 106.91C204.834 92.9827 201.42 81.1038 194.593 71.2731C188.038 61.1692 179.162 53.5231 167.964 48.3346C156.766 43.1461 144.067 40.5519 129.865 40.5519C115.936 40.5519 103.236 43.1461 91.7657 48.3346C80.295 53.5231 71.1458 61.0327 64.318 70.8635C57.4901 80.6942 54.0762 92.7096 54.0762 106.91C54.0762 120.837 57.3536 132.715 63.9083 142.546C70.7361 152.104 79.8854 159.477 91.3561 164.665C102.827 169.581 115.663 172.038 129.865 172.038Z" fill="#CDFF9A"/>
<path d="M290.98 49.9731V4.50577H402V208.085H348.743V49.9731H290.98Z" fill="#CDFF9A"/>
</g>
</svg>
