<svg width="37" height="37" viewBox="0 0 37 37" fill="none" xmlns="http://www.w3.org/2000/svg">
<g clip-path="url(#clip0_1_61)">
<path d="M7.1225 27.935C8.695 26.7325 10.4525 25.7841 12.395 25.0897C14.3375 24.3966 16.3725 24.05 18.5 24.05C20.6275 24.05 22.6625 24.3966 24.605 25.0897C26.5475 25.7841 28.305 26.7325 29.8775 27.935C30.9567 26.6708 31.7972 25.2371 32.3991 23.6337C32.9997 22.0304 33.3 20.3192 33.3 18.5C33.3 14.3992 31.8589 10.907 28.9766 8.02345C26.093 5.14115 22.6008 3.7 18.5 3.7C14.3992 3.7 10.9076 5.14115 8.0253 8.02345C5.14177 10.907 3.7 14.3992 3.7 18.5C3.7 20.3192 4.00093 22.0304 4.6028 23.6337C5.20343 25.2371 6.04333 26.6708 7.1225 27.935ZM18.5 20.35C16.6808 20.35 15.1466 19.7259 13.8972 18.4778C12.6491 17.2284 12.025 15.6942 12.025 13.875C12.025 12.0558 12.6491 10.5216 13.8972 9.2722C15.1466 8.02407 16.6808 7.4 18.5 7.4C20.3192 7.4 21.8534 8.02407 23.1028 9.2722C24.3509 10.5216 24.975 12.0558 24.975 13.875C24.975 15.6942 24.3509 17.2284 23.1028 18.4778C21.8534 19.7259 20.3192 20.35 18.5 20.35ZM18.5 37C15.9408 37 13.5358 36.5141 11.285 35.5422C9.03417 34.5716 7.07625 33.2538 5.41125 31.5888C3.74625 29.9238 2.42843 27.9658 1.4578 25.715C0.485934 23.4642 0 21.0592 0 18.5C0 15.9408 0.485934 13.5358 1.4578 11.285C2.42843 9.03417 3.74625 7.07625 5.41125 5.41125C7.07625 3.74625 9.03417 2.42782 11.285 1.45595C13.5358 0.485317 15.9408 0 18.5 0C21.0592 0 23.4642 0.485317 25.715 1.45595C27.9658 2.42782 29.9238 3.74625 31.5888 5.41125C33.2538 7.07625 34.5716 9.03417 35.5422 11.285C36.5141 13.5358 37 15.9408 37 18.5C37 21.0592 36.5141 23.4642 35.5422 25.715C34.5716 27.9658 33.2538 29.9238 31.5888 31.5888C29.9238 33.2538 27.9658 34.5716 25.715 35.5422C23.4642 36.5141 21.0592 37 18.5 37Z" fill="#07272E"/>
</g>
<defs>
<clipPath id="clip0_1_61">
<rect width="37" height="37" fill="white"/>
</clipPath>
</defs>
</svg>
