<svg width="20" height="20" viewBox="0 0 20 20" fill="none" xmlns="http://www.w3.org/2000/svg">
<path d="M17.2727 -0.000366211H2.72734C2.00401 -0.000366211 1.3103 0.286978 0.79882 0.798454C0.287344 1.30993 0 2.00364 0 2.72698L0 17.2723C0 17.9956 0.287344 18.6893 0.79882 19.2008C1.3103 19.7123 2.00401 19.9996 2.72734 19.9996H17.2727C17.996 19.9996 18.6897 19.7123 19.2012 19.2008C19.7127 18.6893 20 17.9956 20 17.2723V2.72698C20 2.00364 19.7127 1.30993 19.2012 0.798454C18.6897 0.286978 17.996 -0.000366211 17.2727 -0.000366211V-0.000366211ZM6.81836 15.827C6.81857 15.9388 6.77437 16.0461 6.69549 16.1254C6.6166 16.2046 6.50948 16.2493 6.39766 16.2496H4.60078C4.54542 16.2498 4.49056 16.2391 4.43934 16.2181C4.38812 16.1971 4.34155 16.1662 4.30229 16.1271C4.26303 16.0881 4.23186 16.0417 4.21055 15.9906C4.18925 15.9395 4.17823 15.8847 4.17812 15.8293V8.29495C4.17812 8.18285 4.22265 8.07535 4.30192 7.99608C4.38118 7.91682 4.48869 7.87229 4.60078 7.87229H6.39766C6.50958 7.8726 6.61683 7.91725 6.6959 7.99647C6.77497 8.07569 6.81943 8.18302 6.81953 8.29495L6.81836 15.827ZM5.49766 7.15862C5.16048 7.15862 4.83088 7.05863 4.55054 6.8713C4.2702 6.68397 4.05171 6.41771 3.92269 6.1062C3.79368 5.79468 3.75994 5.45191 3.82575 5.12122C3.89156 4.79053 4.05395 4.48679 4.2924 4.2484C4.53084 4.01001 4.83463 3.84768 5.16533 3.78195C5.49603 3.71622 5.8388 3.75003 6.15028 3.87912C6.46177 4.0082 6.72798 4.22676 6.91524 4.50714C7.10251 4.78753 7.20242 5.11715 7.20234 5.45432C7.20234 5.67817 7.15825 5.89982 7.07257 6.10662C6.9869 6.31342 6.86133 6.50132 6.70303 6.65958C6.54473 6.81784 6.3568 6.94337 6.14998 7.029C5.94316 7.11462 5.7215 7.15867 5.49766 7.15862ZM16.2109 15.8563C16.2111 15.9072 16.2013 15.9576 16.182 16.0047C16.1627 16.0518 16.1343 16.0946 16.0984 16.1307C16.0625 16.1668 16.0198 16.1955 15.9729 16.2151C15.9259 16.2347 15.8755 16.2448 15.8246 16.2449H13.8887C13.786 16.2453 13.6873 16.2048 13.6145 16.1324C13.5416 16.0601 13.5004 15.9617 13.5 15.859V12.3281C13.5 11.8008 13.6562 10.0188 12.1215 10.0188C10.934 10.0188 10.6922 11.2383 10.6441 11.786V15.861C10.6443 15.9631 10.6041 16.0611 10.5325 16.1339C10.4608 16.2066 10.3634 16.2482 10.2613 16.2496H8.39531C8.29254 16.2496 8.19398 16.2088 8.12131 16.1361C8.04864 16.0635 8.00781 15.9649 8.00781 15.8621V8.26213C8.00745 8.2111 8.01717 8.16049 8.0364 8.11322C8.05564 8.06594 8.08401 8.02293 8.1199 7.98664C8.15579 7.95035 8.19849 7.9215 8.24555 7.90174C8.29261 7.88199 8.3431 7.87171 8.39414 7.87151H10.2613C10.3646 7.87203 10.4634 7.91341 10.5363 7.98661C10.6091 8.05981 10.65 8.15887 10.65 8.26213V8.91877C11.091 8.25471 11.7438 7.7469 13.1387 7.7469C16.2273 7.7469 16.2066 10.6309 16.2066 12.2153L16.2109 15.8563Z" fill="white"/>
</svg>
