<svg width="20" height="20" viewBox="0 0 20 20" fill="none" xmlns="http://www.w3.org/2000/svg">
<path d="M11.9127 10.0143C11.9127 11.0199 11.0975 11.8352 10.0919 11.8352C9.08637 11.8352 8.27112 11.0199 8.27112 10.0143C8.27112 9.0088 9.08637 8.19354 10.0919 8.19354C11.0975 8.19354 11.9127 9.0088 11.9127 10.0143Z" fill="white"/>
<path d="M13.1456 4.55194H7.04054C5.71165 4.55194 4.63065 5.63294 4.63065 6.96183V13.0669C4.63065 14.3958 5.71165 15.4768 7.04054 15.4768H13.1456C14.4745 15.4768 15.5555 14.3958 15.5555 13.0669V6.96183C15.5555 5.63294 14.4745 4.55194 13.1456 4.55194ZM10.0931 13.0267C8.43204 13.0267 7.08071 11.6754 7.08071 10.0144C7.08071 8.35332 8.43204 7.002 10.0931 7.002C11.7541 7.002 13.1054 8.35332 13.1054 10.0144C13.1054 11.6754 11.7541 13.0267 10.0931 13.0267ZM13.5472 7.16266C13.2145 7.16266 12.9448 6.89296 12.9448 6.56018C12.9448 6.22741 13.2145 5.95771 13.5472 5.95771C13.88 5.95771 14.1497 6.22741 14.1497 6.56018C14.1497 6.89296 13.88 7.16266 13.5472 7.16266Z" fill="white"/>
<path d="M14.7266 -6.10352e-05H5.27344C2.36572 -6.10352e-05 0 2.36566 0 5.27338V14.7265C0 17.6342 2.36572 19.9999 5.27344 19.9999H14.7266C17.6343 19.9999 20 17.6342 20 14.7265V5.27338C20 2.36566 17.6343 -6.10352e-05 14.7266 -6.10352e-05ZM16.4844 12.9687C16.4844 14.9072 14.9072 16.4843 12.9688 16.4843H7.03125C5.09277 16.4843 3.51562 14.9072 3.51562 12.9687V7.03119C3.51562 5.09271 5.09277 3.51556 7.03125 3.51556H12.9688C14.9072 3.51556 16.4844 5.09271 16.4844 7.03119V12.9687Z" fill="white"/>
</svg>
