<svg width="151" height="78" viewBox="0 0 151 78" fill="none" xmlns="http://www.w3.org/2000/svg">
<path d="M3.168 37V3.4H9.504V17.272H21.984V3.4H28.32V37H21.984V23.032H9.504V37H3.168ZM32.364 37L41.196 3.4H52.236L61.068 37H54.54L52.716 29.608H40.716L38.892 37H32.364ZM42.204 23.752H51.228L47.148 7.384H46.284L42.204 23.752ZM14.832 77.672C12.24 77.672 9.952 77.208 7.968 76.28C5.984 75.352 4.432 74.024 3.312 72.296C2.192 70.568 1.632 68.488 1.632 66.056V64.712H7.872V66.056C7.872 68.072 8.496 69.592 9.744 70.616C10.992 71.608 12.688 72.104 14.832 72.104C17.008 72.104 18.624 71.672 19.68 70.808C20.768 69.944 21.312 68.84 21.312 67.496C21.312 66.568 21.04 65.816 20.496 65.24C19.984 64.664 19.216 64.2 18.192 63.848C17.2 63.464 15.984 63.112 14.544 62.792L13.44 62.552C11.136 62.04 9.152 61.4 7.488 60.632C5.856 59.832 4.592 58.792 3.696 57.512C2.832 56.232 2.4 54.568 2.4 52.52C2.4 50.472 2.88 48.728 3.84 47.288C4.832 45.816 6.208 44.696 7.968 43.928C9.76 43.128 11.856 42.728 14.256 42.728C16.656 42.728 18.784 43.144 20.64 43.976C22.528 44.776 24 45.992 25.056 47.624C26.144 49.224 26.688 51.24 26.688 53.672V55.112H20.448V53.672C20.448 52.392 20.192 51.368 19.68 50.6C19.2 49.8 18.496 49.224 17.568 48.872C16.64 48.488 15.536 48.296 14.256 48.296C12.336 48.296 10.912 48.664 9.984 49.4C9.088 50.104 8.64 51.08 8.64 52.328C8.64 53.16 8.848 53.864 9.264 54.44C9.712 55.016 10.368 55.496 11.232 55.88C12.096 56.264 13.2 56.6 14.544 56.888L15.648 57.128C18.048 57.64 20.128 58.296 21.888 59.096C23.68 59.896 25.072 60.952 26.064 62.264C27.056 63.576 27.552 65.256 27.552 67.304C27.552 69.352 27.024 71.16 25.968 72.728C24.944 74.264 23.472 75.48 21.552 76.376C19.664 77.24 17.424 77.672 14.832 77.672ZM32.2774 77V43.4H46.1014C48.2134 43.4 50.0694 43.832 51.6694 44.696C53.3014 45.528 54.5654 46.712 55.4614 48.248C56.3894 49.784 56.8534 51.608 56.8534 53.72V54.392C56.8534 56.472 56.3734 58.296 55.4134 59.864C54.4854 61.4 53.2054 62.6 51.5734 63.464C49.9734 64.296 48.1494 64.712 46.1014 64.712H38.6134V77H32.2774ZM38.6134 58.952H45.4774C46.9814 58.952 48.1974 58.536 49.1254 57.704C50.0534 56.872 50.5174 55.736 50.5174 54.296V53.816C50.5174 52.376 50.0534 51.24 49.1254 50.408C48.1974 49.576 46.9814 49.16 45.4774 49.16H38.6134V58.952ZM74.3021 77.672C70.0781 77.672 66.7181 76.52 64.2221 74.216C61.7261 71.88 60.4781 68.552 60.4781 64.232V56.168C60.4781 51.848 61.7261 48.536 64.2221 46.232C66.7181 43.896 70.0781 42.728 74.3021 42.728C78.5261 42.728 81.8861 43.896 84.3821 46.232C86.8781 48.536 88.1261 51.848 88.1261 56.168V64.232C88.1261 68.552 86.8781 71.88 84.3821 74.216C81.8861 76.52 78.5261 77.672 74.3021 77.672ZM74.3021 72.008C76.6701 72.008 78.5101 71.32 79.8221 69.944C81.1341 68.568 81.7901 66.728 81.7901 64.424V55.976C81.7901 53.672 81.1341 51.832 79.8221 50.456C78.5101 49.08 76.6701 48.392 74.3021 48.392C71.9661 48.392 70.1261 49.08 68.7821 50.456C67.4701 51.832 66.8141 53.672 66.8141 55.976V64.424C66.8141 66.728 67.4701 68.568 68.7821 69.944C70.1261 71.32 71.9661 72.008 74.3021 72.008ZM93.6836 77V43.4H108.276C110.388 43.4 112.228 43.768 113.796 44.504C115.364 45.24 116.58 46.28 117.444 47.624C118.308 48.968 118.74 50.552 118.74 52.376V52.952C118.74 54.968 118.26 56.6 117.3 57.848C116.34 59.096 115.156 60.008 113.748 60.584V61.448C115.028 61.512 116.02 61.96 116.724 62.792C117.428 63.592 117.78 64.664 117.78 66.008V77H111.444V66.92C111.444 66.152 111.236 65.528 110.82 65.048C110.436 64.568 109.78 64.328 108.852 64.328H100.02V77H93.6836ZM100.02 58.568H107.604C109.108 58.568 110.276 58.168 111.108 57.368C111.972 56.536 112.404 55.448 112.404 54.104V53.624C112.404 52.28 111.988 51.208 111.156 50.408C110.324 49.576 109.14 49.16 107.604 49.16H100.02V58.568ZM131.225 77V49.16H121.433V43.4H147.353V49.16H137.561V77H131.225Z" fill="#07272E"/>
<rect x="71" y="30" width="77" height="7" fill="#07272E"/>
</svg>
