<svg width="39" height="39" viewBox="0 0 39 39" fill="none" xmlns="http://www.w3.org/2000/svg">
<path d="M23.1635 25.4345L22.8468 25.1174L22.497 25.3976C21.4922 26.2026 20.3327 26.8433 19.0141 27.3173C17.7051 27.7879 16.3086 28.0247 14.821 28.0247C11.1316 28.0247 8.02789 26.7511 5.47915 24.1987C2.92891 21.6449 1.65625 18.5357 1.65625 14.8405C1.65625 11.1452 2.92891 8.03604 5.47915 5.48218C8.02789 2.92981 11.1316 1.65625 14.821 1.65625C18.5104 1.65625 21.6148 2.92976 24.1649 5.48209C26.7138 8.03593 27.9858 11.1451 27.9858 14.8405C27.9858 16.3304 27.7493 17.7292 27.2793 19.0402C26.8059 20.3608 26.1661 21.5221 25.3622 22.5284L25.0833 22.8775L25.399 23.1938L37.2243 35.0359C37.5131 35.3251 37.6562 35.6704 37.6562 36.1036C37.6562 36.524 37.5048 36.8905 37.1718 37.224C36.8892 37.5069 36.5303 37.6562 36.054 37.6562C35.5776 37.6562 35.2187 37.5069 34.9362 37.224L23.1635 25.4345ZM21.8767 21.9055L21.877 21.9052C23.8105 19.9675 24.7812 17.6028 24.7812 14.8405C24.7812 12.0781 23.8105 9.7134 21.877 7.77571L21.8767 7.77544C19.9418 5.83921 17.5801 4.86678 14.821 4.86678C12.0619 4.86678 9.70026 5.83921 7.76531 7.77544L7.76504 7.77571C5.83158 9.7134 4.8608 12.0781 4.8608 14.8405C4.8608 17.6028 5.83158 19.9675 7.76504 21.9052L7.76531 21.9055C9.70026 23.8417 12.0619 24.8141 14.821 24.8141C17.5801 24.8141 19.9418 23.8417 21.8767 21.9055Z" fill="#07272E" stroke="black"/>
</svg>
