<svg width="20" height="20" viewBox="0 0 20 20" fill="none" xmlns="http://www.w3.org/2000/svg">
<path d="M18.8998 1.09981C18.1666 0.366405 17.2832 -0.000366211 16.2503 -0.000366211H3.75003C2.71712 -0.000366211 1.83372 0.366405 1.10018 1.09981C0.366771 1.83335 0 2.71671 0 3.74966V16.2498C0 17.2826 0.366771 18.1661 1.10018 18.8996C1.83372 19.6332 2.71712 20 3.75003 20H16.2502C17.2831 20 18.1665 19.6332 18.8997 18.8996C19.6332 18.1661 20 17.2827 20 16.2498V3.74966C20 2.71671 19.6332 1.83321 18.8998 1.09981ZM15.2997 7.69512C15.3084 7.77324 15.3128 7.89022 15.3128 8.04675C15.3128 8.77596 15.2063 9.50731 14.9938 10.2406C14.7812 10.9743 14.4556 11.6774 14.0171 12.3501C13.579 13.0228 13.0559 13.6176 12.4484 14.134C11.8406 14.6503 11.1116 15.0628 10.2607 15.3708C9.41021 15.6792 8.49858 15.8334 7.52642 15.8334C6.0161 15.8334 4.61852 15.4251 3.33373 14.6094C3.54206 14.6354 3.7592 14.6484 3.98477 14.6484C5.24352 14.6484 6.37635 14.2578 7.38335 13.4763C6.79315 13.4679 6.26571 13.2858 5.80134 12.9295C5.33683 12.5736 5.01357 12.1223 4.83123 11.5754C5.05685 11.61 5.2261 11.6272 5.33893 11.6272C5.52988 11.6272 5.75131 11.5925 6.00296 11.5233C5.3693 11.4015 4.83552 11.0872 4.40148 10.5793C3.96735 10.0715 3.75035 9.49207 3.75035 8.84108V8.81504C4.21029 9.0319 4.64433 9.14473 5.05238 9.15353C4.26242 8.6239 3.86747 7.86446 3.86747 6.87488C3.86747 6.38871 3.99325 5.92867 4.245 5.49463C4.9307 6.33672 5.76421 7.00937 6.74499 7.51283C7.72586 8.01624 8.77632 8.2985 9.89606 8.3592C9.85274 8.19429 9.83098 7.98586 9.83098 7.7342C9.83098 6.97886 10.0979 6.33443 10.6318 5.80051C11.1656 5.26664 11.8102 4.99961 12.5653 4.99961C13.3641 4.99961 14.0283 5.28616 14.5578 5.85912C15.1568 5.74629 15.7386 5.52482 16.3027 5.19508C16.0857 5.86332 15.6818 6.37119 15.0918 6.71845C15.6559 6.64018 16.1809 6.49269 16.667 6.27569C16.3024 6.83123 15.8465 7.30431 15.2997 7.69512Z" fill="white"/>
</svg>
