<svg width="41" height="35" viewBox="0 0 41 35" fill="none" xmlns="http://www.w3.org/2000/svg">
<path d="M17.9406 31.9793L17.9406 31.9793L17.9474 31.9858C18.2916 32.3145 18.6957 32.5707 19.1347 32.7433C19.5702 32.9146 20.0338 33.0012 20.5 33C20.9662 33.0012 21.4298 32.9146 21.8653 32.7433C22.3043 32.5707 22.7084 32.3145 23.0526 31.9858L23.0526 31.9858L23.0594 31.9793L35.8782 19.6225L35.8782 19.6225L35.8847 19.6162C37.8713 17.6837 39 15.0583 39 12.3059C39 9.55362 37.8713 6.92823 35.8847 4.99573L35.8847 4.9957L35.8752 4.98655C33.8745 3.06588 31.18 2 28.3859 2C25.5919 2 22.8974 3.06588 20.8967 4.98654L20.8947 4.9885L20.5 5.36845L20.1053 4.9885L20.1033 4.98654C18.1026 3.06588 15.4081 2 12.6141 2C9.82002 2 7.12549 3.06588 5.1248 4.98654L5.12477 4.98651L5.1153 4.99573C3.12873 6.92823 2 9.55362 2 12.3059C2 15.0583 3.12873 17.6837 5.1153 19.6162L5.11529 19.6162L5.12184 19.6225L17.9406 31.9793Z" stroke="black" stroke-width="4"/>
</svg>
