<svg width="16" height="206" viewBox="0 0 16 206" fill="none" xmlns="http://www.w3.org/2000/svg">
<path d="M12.748 199.376C12.748 200.528 12.514 201.536 12.046 202.4C11.566 203.252 10.9 203.918 10.048 204.398C9.18401 204.866 8.17601 205.1 7.02401 205.1C5.86001 205.1 4.85201 204.866 4.00001 204.398C3.14801 203.93 2.48801 203.27 2.02001 202.418C1.55201 201.554 1.31801 200.54 1.31801 199.376C1.31801 198.212 1.55201 197.204 2.02001 196.352C2.48801 195.5 3.14801 194.84 4.00001 194.372C4.85201 193.904 5.86001 193.67 7.02401 193.67C8.17601 193.67 9.18401 193.91 10.048 194.39C10.9 194.858 11.566 195.518 12.046 196.37C12.514 197.222 12.748 198.224 12.748 199.376ZM11.452 199.376C11.452 198.692 11.35 198.08 11.146 197.54C10.942 196.988 10.648 196.526 10.264 196.154C9.88001 195.77 9.41801 195.476 8.87801 195.272C8.32601 195.068 7.70801 194.966 7.02401 194.966C6.34001 194.966 5.72801 195.068 5.18801 195.272C4.63601 195.464 4.16801 195.752 3.78401 196.136C3.40001 196.52 3.11201 196.988 2.92001 197.54C2.71601 198.08 2.61401 198.692 2.61401 199.376C2.61401 200.072 2.71601 200.696 2.92001 201.248C3.11201 201.788 3.40001 202.25 3.78401 202.634C4.16801 203.018 4.63601 203.312 5.18801 203.516C5.72801 203.708 6.34001 203.804 7.02401 203.804C7.70801 203.804 8.32601 203.702 8.87801 203.498C9.41801 203.294 9.88001 203 10.264 202.616C10.648 202.232 10.942 201.77 11.146 201.23C11.35 200.678 11.452 200.06 11.452 199.376ZM7.36601 197.126C7.79801 197.126 8.17601 197.222 8.50001 197.414C8.81201 197.606 9.05801 197.87 9.23801 198.206C9.40601 198.53 9.49001 198.902 9.49001 199.322C9.49001 199.982 9.25601 200.534 8.78801 200.978C8.32001 201.422 7.73801 201.644 7.04201 201.644C6.57401 201.644 6.15401 201.542 5.78201 201.338C5.41001 201.134 5.11601 200.858 4.90001 200.51C4.68401 200.15 4.57601 199.754 4.57601 199.322C4.57601 198.902 4.66601 198.53 4.84601 198.206C5.01401 197.882 5.25401 197.624 5.56601 197.432C5.87801 197.228 6.25001 197.126 6.68201 197.126L6.68201 198.242C6.38201 198.29 6.15401 198.416 5.99801 198.62C5.84201 198.824 5.76401 199.058 5.76401 199.322C5.76401 199.634 5.88401 199.898 6.12401 200.114C6.36401 200.33 6.67001 200.438 7.04201 200.438C7.41401 200.438 7.72001 200.336 7.96001 200.132C8.18801 199.916 8.30201 199.646 8.30201 199.322C8.30201 199.046 8.22401 198.806 8.06801 198.602C7.90001 198.398 7.66601 198.278 7.36601 198.242L7.36601 197.126ZM10.282 188.084L12.028 190.496L11.65 190.622L11.65 185.33L13 185.33L13 191.99L11.65 191.99C11.062 191.21 10.564 190.52 10.156 189.92C9.74801 189.308 9.38201 188.792 9.05801 188.372C8.73401 187.952 8.40401 187.634 8.06801 187.418C7.73201 187.19 7.34201 187.076 6.89801 187.076C6.56201 187.076 6.26801 187.142 6.01601 187.274C5.75201 187.406 5.54801 187.61 5.40401 187.886C5.24801 188.15 5.17001 188.498 5.17001 188.93C5.17001 189.458 5.33801 189.914 5.67401 190.298C6.01001 190.682 6.44801 190.874 6.98801 190.874L6.98801 192.134C6.38801 192.194 5.85401 192.086 5.38601 191.81C4.90601 191.522 4.52801 191.126 4.25201 190.622C3.96401 190.106 3.82001 189.542 3.82001 188.93C3.82001 188.402 3.90401 187.934 4.07201 187.526C4.22801 187.118 4.44401 186.776 4.72001 186.5C4.99601 186.212 5.31401 185.996 5.67401 185.852C6.03401 185.708 6.41201 185.636 6.80801 185.636C7.16801 185.636 7.49801 185.696 7.79801 185.816C8.09801 185.924 8.38601 186.086 8.66201 186.302C8.93801 186.506 9.20801 186.758 9.47201 187.058C9.73601 187.358 10.006 187.7 10.282 188.084ZM13.18 179.297C13.18 180.065 12.994 180.785 12.622 181.457C12.25 182.129 11.716 182.675 11.02 183.095C10.312 183.503 9.47801 183.707 8.51801 183.707C7.55801 183.707 6.73001 183.503 6.03401 183.095C5.32601 182.675 4.78001 182.129 4.39601 181.457C4.01201 180.785 3.82001 180.065 3.82001 179.297C3.82001 178.529 4.01201 177.815 4.39601 177.155C4.78001 176.483 5.32601 175.943 6.03401 175.535C6.73001 175.127 7.55801 174.923 8.51801 174.923C9.47801 174.923 10.312 175.127 11.02 175.535C11.716 175.943 12.25 176.483 12.622 177.155C12.994 177.815 13.18 178.529 13.18 179.297ZM11.794 179.297C11.794 178.805 11.668 178.337 11.416 177.893C11.164 177.449 10.792 177.083 10.3 176.795C9.80801 176.507 9.21401 176.363 8.51801 176.363C7.82201 176.363 7.22801 176.507 6.73601 176.795C6.24401 177.071 5.86601 177.437 5.60201 177.893C5.33801 178.337 5.20601 178.805 5.20601 179.297C5.20601 179.789 5.33801 180.263 5.60201 180.719C5.85401 181.175 6.22601 181.547 6.71801 181.835C7.21001 182.123 7.81001 182.267 8.51801 182.267C9.21401 182.267 9.80801 182.123 10.3 181.835C10.792 181.547 11.164 181.175 11.416 180.719C11.668 180.263 11.794 179.789 11.794 179.297ZM10.282 169.345L12.028 171.757L11.65 171.883L11.65 166.591L13 166.591L13 173.251L11.65 173.251C11.062 172.471 10.564 171.781 10.156 171.181C9.74801 170.569 9.38201 170.053 9.05801 169.633C8.73401 169.213 8.40401 168.895 8.06801 168.679C7.73201 168.451 7.34201 168.337 6.89801 168.337C6.56201 168.337 6.26801 168.403 6.01601 168.535C5.75201 168.667 5.54801 168.871 5.40401 169.147C5.24801 169.411 5.17001 169.759 5.17001 170.191C5.17001 170.719 5.33801 171.175 5.67401 171.559C6.01001 171.943 6.44801 172.135 6.98801 172.135L6.98801 173.395C6.38801 173.455 5.85401 173.347 5.38601 173.071C4.90601 172.783 4.52801 172.387 4.25201 171.883C3.96401 171.367 3.82001 170.803 3.82001 170.191C3.82001 169.663 3.90401 169.195 4.07201 168.787C4.22801 168.379 4.44401 168.037 4.72001 167.761C4.99601 167.473 5.31401 167.257 5.67401 167.113C6.03401 166.969 6.41201 166.897 6.80801 166.897C7.16801 166.897 7.49801 166.957 7.79801 167.077C8.09801 167.185 8.38601 167.347 8.66201 167.563C8.93801 167.767 9.20801 168.019 9.47201 168.319C9.73601 168.619 10.006 168.961 10.282 169.345ZM9.58001 161.531L9.49001 161.513C9.52601 161.057 9.60401 160.637 9.72401 160.253C9.84401 159.869 10.024 159.533 10.264 159.245C10.492 158.957 10.792 158.735 11.164 158.579C11.536 158.423 11.986 158.345 12.514 158.345C13.126 158.345 13.684 158.489 14.188 158.777C14.704 159.065 15.112 159.473 15.412 160.001C15.724 160.517 15.88 161.123 15.88 161.819C15.88 162.467 15.724 163.061 15.412 163.601C15.112 164.129 14.704 164.543 14.188 164.843C13.684 165.131 13.126 165.245 12.514 165.185L12.514 163.925C12.898 163.925 13.24 163.841 13.54 163.673C13.852 163.505 14.098 163.265 14.278 162.953C14.458 162.641 14.548 162.263 14.548 161.819C14.548 161.195 14.356 160.703 13.972 160.343C13.588 159.971 13.078 159.785 12.442 159.785C11.806 159.785 11.29 159.989 10.894 160.397C10.498 160.793 10.3 161.339 10.3 162.035L10.3 163.061L8.96801 163.061L8.96801 162.035C8.96801 161.579 8.89001 161.195 8.73401 160.883C8.56601 160.571 8.33201 160.337 8.03201 160.181C7.73201 160.025 7.39001 159.947 7.00601 159.947C6.46601 159.947 6.02801 160.109 5.69201 160.433C5.34401 160.745 5.17001 161.219 5.17001 161.855C5.17001 162.383 5.34401 162.833 5.69201 163.205C6.02801 163.577 6.46601 163.763 7.00601 163.763L7.00601 165.023C6.56201 165.071 6.14801 165.023 5.76401 164.879C5.38001 164.723 5.04401 164.495 4.75601 164.195C4.45601 163.895 4.22801 163.547 4.07201 163.151C3.90401 162.743 3.82 162.311 3.82 161.855C3.82 161.183 3.964 160.595 4.25201 160.091C4.52801 159.587 4.90601 159.197 5.38601 158.921C5.86601 158.645 6.40601 158.507 7.00601 158.507C7.49801 158.507 7.91201 158.585 8.24801 158.741C8.57201 158.885 8.83001 159.095 9.02201 159.371C9.21401 159.635 9.35201 159.953 9.43601 160.325C9.52001 160.697 9.56801 161.099 9.58001 161.531ZM1.3 144.881C1.3 143.705 1.456 142.721 1.768 141.929C2.068 141.125 2.488 140.483 3.028 140.003C3.568 139.523 4.186 139.175 4.882 138.959C5.578 138.743 6.316 138.635 7.096 138.635C7.876 138.635 8.62 138.749 9.328 138.977C10.036 139.205 10.666 139.571 11.218 140.075C11.77 140.567 12.208 141.209 12.532 142.001C12.844 142.793 13 143.753 13 144.881L13 148.679L1.3 148.679L1.3 144.881ZM11.65 147.239L11.65 144.881C11.65 143.933 11.518 143.153 11.254 142.541C10.99 141.917 10.642 141.425 10.21 141.065C9.766 140.705 9.274 140.453 8.734 140.309C8.194 140.153 7.648 140.075 7.096 140.075C6.544 140.075 6.004 140.153 5.476 140.309C4.948 140.453 4.474 140.705 4.054 141.065C3.622 141.425 3.28 141.917 3.028 142.541C2.776 143.153 2.65 143.933 2.65 144.881L2.65 147.239L11.65 147.239ZM13.18 132.651C13.18 133.419 12.994 134.139 12.622 134.811C12.25 135.483 11.716 136.029 11.02 136.449C10.312 136.857 9.478 137.061 8.518 137.061C7.558 137.061 6.73 136.857 6.034 136.449C5.326 136.029 4.78 135.483 4.396 134.811C4.012 134.139 3.82 133.419 3.82 132.651C3.82 131.883 4.012 131.169 4.396 130.509C4.78 129.837 5.326 129.297 6.034 128.889C6.73 128.481 7.558 128.277 8.518 128.277C9.478 128.277 10.312 128.481 11.02 128.889C11.716 129.297 12.25 129.837 12.622 130.509C12.994 131.169 13.18 131.883 13.18 132.651ZM11.83 132.651C11.83 132.147 11.704 131.673 11.452 131.229C11.2 130.785 10.828 130.425 10.336 130.149C9.832 129.861 9.226 129.717 8.518 129.717C7.81 129.717 7.21 129.861 6.718 130.149C6.214 130.425 5.83 130.785 5.566 131.229C5.302 131.673 5.17 132.147 5.17 132.651C5.17 133.155 5.302 133.635 5.566 134.091C5.818 134.535 6.196 134.901 6.7 135.189C7.192 135.477 7.798 135.621 8.518 135.621C9.226 135.621 9.832 135.483 10.336 135.207C10.828 134.919 11.2 134.547 11.452 134.091C11.704 133.635 11.83 133.155 11.83 132.651ZM4 127.255L4 121.963L5.35 121.963L5.35 127.255L4 127.255ZM1.66 125.329L1.66 123.889L13 123.889L13 125.329L1.66 125.329ZM9.616 112.445C10.36 112.529 11.002 112.769 11.542 113.165C12.07 113.549 12.478 114.035 12.766 114.623C13.042 115.211 13.18 115.847 13.18 116.531C13.18 117.299 12.994 118.019 12.622 118.691C12.25 119.363 11.716 119.909 11.02 120.329C10.312 120.737 9.478 120.941 8.518 120.941C7.558 120.941 6.73 120.737 6.034 120.329C5.326 119.909 4.78 119.363 4.396 118.691C4.012 118.019 3.82 117.299 3.82 116.531C3.82 115.847 3.964 115.217 4.252 114.641C4.54 114.053 4.948 113.567 5.476 113.183C6.004 112.787 6.634 112.541 7.366 112.445L7.366 113.759C6.682 113.963 6.148 114.317 5.764 114.821C5.368 115.325 5.17 115.895 5.17 116.531C5.17 117.047 5.302 117.533 5.566 117.989C5.83 118.445 6.214 118.811 6.718 119.087C7.21 119.363 7.81 119.501 8.518 119.501C9.214 119.501 9.814 119.363 10.318 119.087C10.81 118.811 11.188 118.451 11.452 118.007C11.704 117.551 11.83 117.059 11.83 116.531C11.83 115.799 11.638 115.205 11.254 114.749C10.858 114.281 10.312 113.945 9.616 113.741L9.616 112.445ZM4 110.611L4 109.171L13 109.171L13 110.611L4 110.611ZM5.35 106.291C5.35 106.903 5.506 107.419 5.818 107.839C6.118 108.247 6.49 108.571 6.934 108.811C7.366 109.039 7.786 109.189 8.194 109.261L7.15 109.279C7.042 109.279 6.862 109.255 6.61 109.207C6.358 109.159 6.076 109.069 5.764 108.937C5.44 108.805 5.134 108.631 4.846 108.415C4.546 108.187 4.3 107.899 4.108 107.551C3.916 107.203 3.82 106.783 3.82 106.291L5.35 106.291ZM10.102 98.2978L10.102 96.9478C10.69 97.0438 11.218 97.2598 11.686 97.5958C12.142 97.9198 12.508 98.3518 12.784 98.8918C13.048 99.4198 13.18 100.032 13.18 100.728C13.18 101.568 12.982 102.324 12.586 102.996C12.178 103.668 11.626 104.202 10.93 104.598C10.222 104.982 9.418 105.174 8.518 105.174C7.618 105.174 6.814 104.988 6.106 104.616C5.398 104.232 4.84 103.71 4.432 103.05C4.024 102.39 3.82 101.646 3.82 100.818C3.82 99.9418 4.018 99.2038 4.414 98.6038C4.798 97.9918 5.368 97.5418 6.124 97.2538C6.868 96.9538 7.786 96.8338 8.878 96.8938L8.878 103.734C9.466 103.674 9.982 103.512 10.426 103.248C10.87 102.984 11.218 102.636 11.47 102.204C11.71 101.772 11.83 101.28 11.83 100.728C11.83 100.116 11.674 99.5998 11.362 99.1798C11.038 98.7478 10.618 98.4538 10.102 98.2978ZM5.17 100.764C5.17 101.508 5.386 102.132 5.818 102.636C6.25 103.14 6.838 103.476 7.582 103.644L7.582 98.3698C6.79 98.4178 6.19 98.6758 5.782 99.1438C5.374 99.5998 5.17 100.14 5.17 100.764ZM13.18 91.635C13.18 92.343 12.982 92.997 12.586 93.597C12.178 94.185 11.626 94.659 10.93 95.019C10.222 95.367 9.418 95.541 8.518 95.541C7.618 95.541 6.814 95.361 6.106 95.001C5.398 94.641 4.84 94.155 4.432 93.543C4.024 92.919 3.82 92.223 3.82 91.455C3.82 90.615 4.036 89.979 4.468 89.547C4.888 89.103 5.452 88.803 6.16 88.647C6.868 88.479 7.654 88.395 8.518 88.395C8.974 88.395 9.472 88.443 10.012 88.539C10.54 88.635 11.05 88.803 11.542 89.043C12.022 89.271 12.418 89.595 12.73 90.015C13.03 90.435 13.18 90.975 13.18 91.635ZM11.812 91.275C11.812 90.663 11.662 90.159 11.362 89.763C11.062 89.355 10.666 89.055 10.174 88.863C9.67 88.671 9.118 88.575 8.518 88.575C7.858 88.575 7.282 88.677 6.79 88.881C6.286 89.073 5.896 89.373 5.62 89.781C5.332 90.177 5.188 90.675 5.188 91.275C5.188 92.175 5.506 92.871 6.142 93.363C6.766 93.855 7.558 94.101 8.518 94.101C9.154 94.101 9.724 93.981 10.228 93.741C10.72 93.489 11.11 93.153 11.398 92.733C11.674 92.301 11.812 91.815 11.812 91.275ZM4 88.575L4 87.135L13 87.135L13 88.449C13 88.449 12.892 88.461 12.676 88.485C12.46 88.497 12.208 88.515 11.92 88.539C11.632 88.563 11.392 88.575 11.2 88.575L4 88.575ZM4 85.419L4 80.127L5.35 80.127L5.35 85.419L4 85.419ZM1.66 83.493L1.66 82.053L13 82.053L13 83.493L1.66 83.493ZM0.400001 76.6437L2.146 76.6437L2.146 78.5157L0.400001 78.5157L0.400001 76.6437ZM4 78.2997L4 76.8597L13 76.8597L13 78.2997L4 78.2997ZM11.758 70.9263L11.758 71.3583L4 68.6043L4 67.0383L13 70.4583L13 71.8083L4 75.2103L4 73.6443L11.758 70.9263ZM10.102 59.3975L10.102 58.0475C10.69 58.1435 11.218 58.3595 11.686 58.6955C12.142 59.0195 12.508 59.4515 12.784 59.9915C13.048 60.5195 13.18 61.1315 13.18 61.8275C13.18 62.6675 12.982 63.4235 12.586 64.0955C12.178 64.7675 11.626 65.3015 10.93 65.6975C10.222 66.0815 9.418 66.2735 8.518 66.2735C7.618 66.2735 6.814 66.0875 6.106 65.7155C5.398 65.3315 4.84 64.8095 4.432 64.1495C4.024 63.4895 3.82 62.7455 3.82 61.9175C3.82 61.0415 4.018 60.3035 4.414 59.7035C4.798 59.0915 5.368 58.6415 6.124 58.3535C6.868 58.0535 7.786 57.9335 8.878 57.9935L8.878 64.8335C9.466 64.7735 9.982 64.6115 10.426 64.3475C10.87 64.0835 11.218 63.7355 11.47 63.3035C11.71 62.8715 11.83 62.3795 11.83 61.8275C11.83 61.2155 11.674 60.6995 11.362 60.2795C11.038 59.8475 10.618 59.5535 10.102 59.3975ZM5.17 61.8635C5.17 62.6075 5.386 63.2315 5.818 63.7355C6.25 64.2395 6.838 64.5755 7.582 64.7435L7.582 59.4695C6.79 59.5175 6.19 59.7755 5.782 60.2435C5.374 60.6995 5.17 61.2395 5.17 61.8635ZM4 56.1366L4 54.6966L13 54.6966L13 56.1366L4 56.1366ZM3.82 51.6006C3.82 51.1206 3.892 50.6886 4.036 50.3046C4.18 49.9206 4.39 49.5966 4.666 49.3326C4.942 49.0686 5.278 48.8646 5.674 48.7206C6.058 48.5766 6.496 48.5046 6.988 48.5046L13 48.5046L13 49.9446L7.348 49.9446C6.652 49.9446 6.13 50.1066 5.782 50.4306C5.434 50.7546 5.26 51.2406 5.26 51.8886C5.26 52.3806 5.386 52.8366 5.638 53.2566C5.89 53.6766 6.238 54.0246 6.682 54.3006C7.114 54.5646 7.618 54.7266 8.194 54.7866L7.15 54.8046C6.646 54.7446 6.19 54.6246 5.782 54.4446C5.374 54.2526 5.026 54.0186 4.738 53.7426C4.438 53.4546 4.21 53.1306 4.054 52.7706C3.898 52.3986 3.82 52.0086 3.82 51.6006ZM3.82 45.5526C3.82 45.0726 3.892 44.6406 4.036 44.2566C4.18 43.8726 4.39 43.5486 4.666 43.2846C4.942 43.0206 5.278 42.8166 5.674 42.6726C6.058 42.5286 6.496 42.4566 6.988 42.4566L13 42.4566L13 43.8966L7.348 43.8966C6.652 43.8966 6.13 44.0586 5.782 44.3826C5.434 44.7066 5.26 45.1926 5.26 45.8406C5.26 46.3326 5.386 46.7886 5.638 47.2086C5.89 47.6286 6.238 47.9766 6.682 48.2526C7.114 48.5166 7.618 48.6786 8.194 48.7386L7.15 48.7566C6.646 48.6966 6.19 48.5766 5.782 48.3966C5.374 48.2046 5.026 47.9706 4.738 47.6946C4.438 47.4066 4.21 47.0826 4.054 46.7226C3.898 46.3506 3.82 45.9606 3.82 45.5526ZM13.18 36.721C13.18 37.429 12.982 38.083 12.586 38.683C12.178 39.271 11.626 39.745 10.93 40.105C10.222 40.453 9.418 40.627 8.518 40.627C7.618 40.627 6.814 40.447 6.106 40.087C5.398 39.727 4.84 39.241 4.432 38.629C4.024 38.005 3.82 37.309 3.82 36.541C3.82 35.701 4.036 35.065 4.468 34.633C4.888 34.189 5.452 33.889 6.16 33.733C6.868 33.565 7.654 33.481 8.518 33.481C8.974 33.481 9.472 33.529 10.012 33.625C10.54 33.721 11.05 33.889 11.542 34.129C12.022 34.357 12.418 34.681 12.73 35.101C13.03 35.521 13.18 36.061 13.18 36.721ZM11.812 36.361C11.812 35.749 11.662 35.245 11.362 34.849C11.062 34.441 10.666 34.141 10.174 33.949C9.67 33.757 9.118 33.661 8.518 33.661C7.858 33.661 7.282 33.763 6.79 33.967C6.286 34.159 5.896 34.459 5.62 34.867C5.332 35.263 5.188 35.761 5.188 36.361C5.188 37.261 5.506 37.957 6.142 38.449C6.766 38.941 7.558 39.187 8.518 39.187C9.154 39.187 9.724 39.067 10.228 38.827C10.72 38.575 11.11 38.239 11.398 37.819C11.674 37.387 11.812 36.901 11.812 36.361ZM4 33.661L4 32.221L13 32.221L13 33.535C13 33.535 12.892 33.547 12.676 33.571C12.46 33.583 12.208 33.601 11.92 33.625C11.632 33.649 11.392 33.661 11.2 33.661L4 33.661ZM4 29.8749L4 28.4349L13 28.4349L13 29.8749L4 29.8749ZM5.35 25.5549C5.35 26.1669 5.506 26.6829 5.818 27.1029C6.118 27.5109 6.49 27.8349 6.934 28.0749C7.366 28.3029 7.786 28.4529 8.194 28.5249L7.15 28.5429C7.042 28.5429 6.862 28.5189 6.61 28.4709C6.358 28.4229 6.076 28.3329 5.764 28.2009C5.44 28.0689 5.134 27.8949 4.846 27.6789C4.546 27.4509 4.3 27.1629 4.108 26.8149C3.916 26.4669 3.82 26.0469 3.82 25.5549L5.35 25.5549ZM0.399999 23.7175L0.399999 22.2775L13 22.2775L13 23.7175L0.399999 23.7175ZM4 16.2655L8.446 20.7655L7.51 20.7295L13 15.9595L13 17.7955L7.978 22.2415L4 18.3175L4 16.2655ZM10.102 8.59667L10.102 7.24667C10.69 7.34267 11.218 7.55867 11.686 7.89467C12.142 8.21867 12.508 8.65067 12.784 9.19067C13.048 9.71867 13.18 10.3307 13.18 11.0267C13.18 11.8667 12.982 12.6227 12.586 13.2947C12.178 13.9667 11.626 14.5007 10.93 14.8967C10.222 15.2807 9.418 15.4727 8.518 15.4727C7.618 15.4727 6.814 15.2867 6.106 14.9147C5.398 14.5307 4.84 14.0087 4.432 13.3487C4.024 12.6887 3.82 11.9447 3.82 11.1167C3.82 10.2407 4.018 9.50267 4.414 8.90267C4.798 8.29067 5.368 7.84067 6.124 7.55267C6.868 7.25267 7.786 7.13267 8.878 7.19267L8.878 14.0327C9.466 13.9727 9.982 13.8107 10.426 13.5467C10.87 13.2827 11.218 12.9347 11.47 12.5027C11.71 12.0707 11.83 11.5787 11.83 11.0267C11.83 10.4147 11.674 9.89867 11.362 9.47867C11.038 9.04667 10.618 8.75267 10.102 8.59667ZM5.17 11.0627C5.17 11.8067 5.386 12.4307 5.818 12.9347C6.25 13.4387 6.838 13.7747 7.582 13.9427L7.582 8.66867C6.79 8.71667 6.19 8.97467 5.782 9.44267C5.374 9.89867 5.17 10.4387 5.17 11.0627ZM4 6.14164L4 0.84964L5.35 0.84964L5.35 6.14164L4 6.14164ZM1.66 4.21564L1.66 2.77564L13 2.77564L13 4.21564L1.66 4.21564Z" fill="#CDFF9A"/>
</svg>
