<svg width="192" height="197" viewBox="0 0 192 197" fill="none" xmlns="http://www.w3.org/2000/svg">
<path d="M96 16.3628C51.888 16.3628 16 53.0643 16 98.1761C16 143.288 51.888 179.989 96 179.989C140.112 179.989 176 143.288 176 98.1761C176 88.964 174.432 80.1298 171.672 71.8584L158.719 85.1052C159.559 89.3267 160 93.7009 160 98.1761C160 134.264 131.288 163.627 96 163.627C60.712 163.627 32 134.264 32 98.1761C32 62.0883 60.712 32.7255 96 32.7255C109.064 32.7255 121.215 36.7661 131.359 43.6712L142.812 31.9585C129.628 22.1899 113.48 16.3628 96 16.3628ZM170.344 26.941L88 111.151L61.6562 84.2103L50.3438 95.7793L88 134.289L181.656 38.5099L170.344 26.941Z" fill="#4FA3A5"/>
</svg>
